<svg width="295" height="295" viewBox="0 0 295 295" fill="none" xmlns="http://www.w3.org/2000/svg">
<path d="M169.942 134.243C176.508 140.77 181.724 148.527 185.292 157.069C188.861 165.612 190.711 174.774 190.739 184.033C190.766 193.291 188.97 202.464 185.452 211.028C181.935 219.592 176.765 227.379 170.238 233.945C163.711 240.511 155.954 245.727 147.412 249.295C138.869 252.863 129.707 254.714 120.448 254.741C111.19 254.769 102.017 252.973 93.4534 249.455C84.8895 245.937 77.1022 240.768 70.5363 234.24L120.239 184.242L169.942 134.243Z" fill="#2ECC71"/>
<path d="M123.779 161.923C117.233 155.376 112.04 147.604 108.497 139.051C104.954 130.498 103.13 121.33 103.13 112.072C103.13 102.814 104.954 93.646 108.497 85.0926C112.04 76.5391 117.233 68.7673 123.779 62.2207C130.326 55.6742 138.098 50.4812 146.651 46.9383C155.205 43.3953 164.372 41.5718 173.63 41.5718C182.888 41.5718 192.056 43.3953 200.609 46.9383C209.163 50.4812 216.935 55.6742 223.481 62.2208L173.63 112.072L123.779 161.923Z" fill="#2ECC71"/>
</svg>
